<?xml version="1.0" encoding="utf-8"?>
<!-- Generator: Adobe Illustrator 27.3.1, SVG Export Plug-In . SVG Version: 6.00 Build 0)  -->
<svg version="1.1" id="Layer_1" xmlns="http://www.w3.org/2000/svg" xmlns:xlink="http://www.w3.org/1999/xlink" x="0px" y="0px"
	 viewBox="0 0 448 512" style="enable-background:new 0 0 448 512;" xml:space="preserve">
<path d="M152,94.2c0-16.6,13.4-30,30-30s30,13.4,30,30v111.1c6.4-5.7,14.8-9.1,24-9.1c15.5,0,28.7,9.8,33.8,23.4
	c6.6-7,15.9-11.4,26.2-11.4c19,0,34.5,14.6,35.9,33.2c6.4-5.8,14.9-9.2,24.1-9.2c19.9,0,36,16.1,36,36v36v12v36c0,53-43,96-96,96
	h-12h-48h-0.1H232c-3.8,0-7.4-0.2-11-0.8c-41.5-4.2-79.6-25.5-105-59.2l-54-72c-10-13.3-7.3-32,6-42s32-7.3,42,6l42,56V94.2z
	 M236,292.2c0-6.6-5.4-12-12-12s-12,5.4-12,12v72c0,6.6,5.4,12,12,12s12-5.4,12-12V292.2z M272,280.2c-6.6,0-12,5.4-12,12v72
	c0,6.6,5.4,12,12,12s12-5.4,12-12v-72C284,285.7,278.6,280.2,272,280.2z M332,292.2c0-6.6-5.4-12-12-12s-12,5.4-12,12v72
	c0,6.6,5.4,12,12,12s12-5.4,12-12V292.2z"/>
</svg>
